<svg width="95" height="24" viewBox="0 0 95 24" fill="none" xmlns="http://www.w3.org/2000/svg">
<rect x="0.414795" width="93.6648" height="24" rx="12" fill="#D7FFE0"/>
<path d="M26.5224 8.718V15H25.2624V8.718H26.5224ZM30.5302 9.942C31.1242 9.942 31.6042 10.131 31.9702 10.509C32.3362 10.881 32.5192 11.403 32.5192 12.075V15H31.2592V12.246C31.2592 11.85 31.1602 11.547 30.9622 11.337C30.7642 11.121 30.4942 11.013 30.1522 11.013C29.8042 11.013 29.5282 11.121 29.3242 11.337C29.1262 11.547 29.0272 11.85 29.0272 12.246V15H27.7672V10.014H29.0272V10.635C29.1952 10.419 29.4082 10.251 29.6662 10.131C29.9302 10.005 30.2182 9.942 30.5302 9.942ZM35.1844 11.049V13.461C35.1844 13.629 35.2234 13.752 35.3014 13.83C35.3854 13.902 35.5234 13.938 35.7154 13.938H36.3004V15H35.5084C34.4464 15 33.9154 14.484 33.9154 13.452V11.049H33.3214V10.014H33.9154V8.781H35.1844V10.014H36.3004V11.049H35.1844ZM41.8417 12.399C41.8417 12.579 41.8297 12.741 41.8057 12.885H38.1607C38.1907 13.245 38.3167 13.527 38.5387 13.731C38.7607 13.935 39.0337 14.037 39.3577 14.037C39.8257 14.037 40.1587 13.836 40.3567 13.434H41.7157C41.5717 13.914 41.2957 14.31 40.8877 14.622C40.4797 14.928 39.9787 15.081 39.3847 15.081C38.9047 15.081 38.4727 14.976 38.0887 14.766C37.7107 14.55 37.4137 14.247 37.1977 13.857C36.9877 13.467 36.8827 13.017 36.8827 12.507C36.8827 11.991 36.9877 11.538 37.1977 11.148C37.4077 10.758 37.7017 10.458 38.0797 10.248C38.4577 10.038 38.8927 9.933 39.3847 9.933C39.8587 9.933 40.2817 10.035 40.6537 10.239C41.0317 10.443 41.3227 10.734 41.5267 11.112C41.7367 11.484 41.8417 11.913 41.8417 12.399ZM40.5367 12.039C40.5307 11.715 40.4137 11.457 40.1857 11.265C39.9577 11.067 39.6787 10.968 39.3487 10.968C39.0367 10.968 38.7727 11.064 38.5567 11.256C38.3467 11.442 38.2177 11.703 38.1697 12.039H40.5367ZM44.0214 10.788C44.1834 10.524 44.3934 10.317 44.6514 10.167C44.9154 10.017 45.2154 9.942 45.5514 9.942V11.265H45.2184C44.8224 11.265 44.5224 11.358 44.3184 11.544C44.1204 11.73 44.0214 12.054 44.0214 12.516V15H42.7614V10.014H44.0214V10.788ZM49.1631 9.942C49.7571 9.942 50.2371 10.131 50.6031 10.509C50.9691 10.881 51.1521 11.403 51.1521 12.075V15H49.8921V12.246C49.8921 11.85 49.7931 11.547 49.5951 11.337C49.3971 11.121 49.1271 11.013 48.7851 11.013C48.4371 11.013 48.1611 11.121 47.9571 11.337C47.7591 11.547 47.6601 11.85 47.6601 12.246V15H46.4001V10.014H47.6601V10.635C47.8281 10.419 48.0411 10.251 48.2991 10.131C48.5631 10.005 48.8511 9.942 49.1631 9.942ZM54.2582 15.081C53.8502 15.081 53.4842 15.009 53.1602 14.865C52.8362 14.715 52.5782 14.514 52.3862 14.262C52.2002 14.01 52.0982 13.731 52.0802 13.425H53.3492C53.3732 13.617 53.4662 13.776 53.6282 13.902C53.7962 14.028 54.0032 14.091 54.2492 14.091C54.4892 14.091 54.6752 14.043 54.8072 13.947C54.9452 13.851 55.0142 13.728 55.0142 13.578C55.0142 13.416 54.9302 13.296 54.7622 13.218C54.6002 13.134 54.3392 13.044 53.9792 12.948C53.6072 12.858 53.3012 12.765 53.0612 12.669C52.8272 12.573 52.6232 12.426 52.4492 12.228C52.2812 12.03 52.1972 11.763 52.1972 11.427C52.1972 11.151 52.2752 10.899 52.4312 10.671C52.5932 10.443 52.8212 10.263 53.1152 10.131C53.4152 9.999 53.7662 9.933 54.1682 9.933C54.7622 9.933 55.2362 10.083 55.5902 10.383C55.9442 10.677 56.1392 11.076 56.1752 11.58H54.9692C54.9512 11.382 54.8672 11.226 54.7172 11.112C54.5732 10.992 54.3782 10.932 54.1322 10.932C53.9042 10.932 53.7272 10.974 53.6012 11.058C53.4812 11.142 53.4212 11.259 53.4212 11.409C53.4212 11.577 53.5052 11.706 53.6732 11.796C53.8412 11.88 54.1022 11.967 54.4562 12.057C54.8162 12.147 55.1132 12.24 55.3472 12.336C55.5812 12.432 55.7822 12.582 55.9502 12.786C56.1242 12.984 56.2142 13.248 56.2202 13.578C56.2202 13.866 56.1392 14.124 55.9772 14.352C55.8212 14.58 55.5932 14.76 55.2932 14.892C54.9992 15.018 54.6542 15.081 54.2582 15.081ZM60.0625 9.942C60.4405 9.942 60.7765 10.026 61.0705 10.194C61.3645 10.356 61.5925 10.599 61.7545 10.923C61.9225 11.241 62.0065 11.625 62.0065 12.075V15H60.7465V12.246C60.7465 11.85 60.6475 11.547 60.4495 11.337C60.2515 11.121 59.9815 11.013 59.6395 11.013C59.2915 11.013 59.0155 11.121 58.8115 11.337C58.6135 11.547 58.5145 11.85 58.5145 12.246V15H57.2545V8.34H58.5145V10.635C58.6765 10.419 58.8925 10.251 59.1625 10.131C59.4325 10.005 59.7325 9.942 60.0625 9.942ZM63.8437 9.42C63.6217 9.42 63.4357 9.351 63.2857 9.213C63.1417 9.069 63.0697 8.892 63.0697 8.682C63.0697 8.472 63.1417 8.298 63.2857 8.16C63.4357 8.016 63.6217 7.944 63.8437 7.944C64.0657 7.944 64.2487 8.016 64.3927 8.16C64.5427 8.298 64.6177 8.472 64.6177 8.682C64.6177 8.892 64.5427 9.069 64.3927 9.213C64.2487 9.351 64.0657 9.42 63.8437 9.42ZM64.4647 10.014V15H63.2047V10.014H64.4647ZM66.9696 10.734C67.1316 10.506 67.3536 10.317 67.6356 10.167C67.9236 10.011 68.2506 9.933 68.6166 9.933C69.0426 9.933 69.4266 10.038 69.7686 10.248C70.1166 10.458 70.3896 10.758 70.5876 11.148C70.7916 11.532 70.8936 11.979 70.8936 12.489C70.8936 12.999 70.7916 13.452 70.5876 13.848C70.3896 14.238 70.1166 14.541 69.7686 14.757C69.4266 14.973 69.0426 15.081 68.6166 15.081C68.2506 15.081 67.9266 15.006 67.6446 14.856C67.3686 14.706 67.1436 14.517 66.9696 14.289V17.376H65.7096V10.014H66.9696V10.734ZM69.6066 12.489C69.6066 12.189 69.5436 11.931 69.4176 11.715C69.2976 11.493 69.1356 11.325 68.9316 11.211C68.7336 11.097 68.5176 11.04 68.2836 11.04C68.0556 11.04 67.8396 11.1 67.6356 11.22C67.4376 11.334 67.2756 11.502 67.1496 11.724C67.0296 11.946 66.9696 12.207 66.9696 12.507C66.9696 12.807 67.0296 13.068 67.1496 13.29C67.2756 13.512 67.4376 13.683 67.6356 13.803C67.8396 13.917 68.0556 13.974 68.2836 13.974C68.5176 13.974 68.7336 13.914 68.9316 13.794C69.1356 13.674 69.2976 13.503 69.4176 13.281C69.5436 13.059 69.6066 12.795 69.6066 12.489Z" fill="#018C0F"/>
</svg>
