<svg width="95" height="24" viewBox="0 0 95 24" fill="none" xmlns="http://www.w3.org/2000/svg">
<rect x="0.414795" width="93.6648" height="24" rx="12" fill="#D7FFE0"/>
<path d="M32.134 8.718V9.735H29.515V11.346H31.522V12.345H29.515V15H28.255V8.718H32.134ZM37.7345 10.014V15H36.4655V14.37C36.3035 14.586 36.0905 14.757 35.8265 14.883C35.5685 15.003 35.2865 15.063 34.9805 15.063C34.5905 15.063 34.2455 14.982 33.9455 14.82C33.6455 14.652 33.4085 14.409 33.2345 14.091C33.0665 13.767 32.9825 13.383 32.9825 12.939V10.014H34.2425V12.759C34.2425 13.155 34.3415 13.461 34.5395 13.677C34.7375 13.887 35.0075 13.992 35.3495 13.992C35.6975 13.992 35.9705 13.887 36.1685 13.677C36.3665 13.461 36.4655 13.155 36.4655 12.759V10.014H37.7345ZM40.2377 8.34V15H38.9777V8.34H40.2377ZM42.7426 8.34V15H41.4826V8.34H42.7426ZM50.407 8.718V9.735H48.733V15H47.473V9.735H45.799V8.718H50.407ZM51.9653 9.42C51.7433 9.42 51.5573 9.351 51.4073 9.213C51.2633 9.069 51.1913 8.892 51.1913 8.682C51.1913 8.472 51.2633 8.298 51.4073 8.16C51.5573 8.016 51.7433 7.944 51.9653 7.944C52.1873 7.944 52.3703 8.016 52.5143 8.16C52.6643 8.298 52.7393 8.472 52.7393 8.682C52.7393 8.892 52.6643 9.069 52.5143 9.213C52.3703 9.351 52.1873 9.42 51.9653 9.42ZM52.5863 10.014V15H51.3263V10.014H52.5863ZM60.0232 9.942C60.6352 9.942 61.1272 10.131 61.4992 10.509C61.8772 10.881 62.0662 11.403 62.0662 12.075V15H60.8062V12.246C60.8062 11.856 60.7072 11.559 60.5092 11.355C60.3112 11.145 60.0412 11.04 59.6992 11.04C59.3572 11.04 59.0842 11.145 58.8802 11.355C58.6822 11.559 58.5832 11.856 58.5832 12.246V15H57.3232V12.246C57.3232 11.856 57.2242 11.559 57.0262 11.355C56.8282 11.145 56.5582 11.04 56.2162 11.04C55.8682 11.04 55.5922 11.145 55.3882 11.355C55.1902 11.559 55.0912 11.856 55.0912 12.246V15H53.8312V10.014H55.0912V10.617C55.2532 10.407 55.4602 10.242 55.7122 10.122C55.9702 10.002 56.2522 9.942 56.5582 9.942C56.9482 9.942 57.2962 10.026 57.6022 10.194C57.9082 10.356 58.1452 10.59 58.3132 10.896C58.4752 10.608 58.7092 10.377 59.0152 10.203C59.3272 10.029 59.6632 9.942 60.0232 9.942ZM67.8969 12.399C67.8969 12.579 67.8849 12.741 67.8609 12.885H64.2159C64.2459 13.245 64.3719 13.527 64.5939 13.731C64.8159 13.935 65.0889 14.037 65.4129 14.037C65.8809 14.037 66.2139 13.836 66.4119 13.434H67.7709C67.6269 13.914 67.3509 14.31 66.9429 14.622C66.5349 14.928 66.0339 15.081 65.4399 15.081C64.9599 15.081 64.5279 14.976 64.1439 14.766C63.7659 14.55 63.4689 14.247 63.2529 13.857C63.0429 13.467 62.9379 13.017 62.9379 12.507C62.9379 11.991 63.0429 11.538 63.2529 11.148C63.4629 10.758 63.7569 10.458 64.1349 10.248C64.5129 10.038 64.9479 9.933 65.4399 9.933C65.9139 9.933 66.3369 10.035 66.7089 10.239C67.0869 10.443 67.3779 10.734 67.5819 11.112C67.7919 11.484 67.8969 11.913 67.8969 12.399ZM66.5919 12.039C66.5859 11.715 66.4689 11.457 66.2409 11.265C66.0129 11.067 65.7339 10.968 65.4039 10.968C65.0919 10.968 64.8279 11.064 64.6119 11.256C64.4019 11.442 64.2729 11.703 64.2249 12.039H66.5919Z" fill="#018C0F"/>
</svg>
